# AST/ASF file generated using VICON BodyLanguage
# -----------------------------------------------
:version 1.10
:name VICON
:units
  mass 1.0
  length 0.45
  angle deg
:documentation
   .ast/.asf automatically generated from VICON data using
   VICON BodyBuilder and BodyLanguage model FoxedUp or BRILLIANT.MOD
:root
   order TX TY TZ RX RY RZ
   axis XYZ
   position 0 0 0  
   orientation 0 0 0 
:bonedata
  begin
     id 1 
     name lhipjoint
     direction 0.822369 -0.411937 0.392449 
     length 3.8167 
     axis 0 0 0  XYZ
  end
  begin
     id 2 
     name lfemur
     direction 0.34202 -0.939693 0  
     length 6.16791  
     axis 0 0 20  XYZ
    dof rx ry rz
    limits (-160.0 20.0)
           (-70.0 70.0)
           (-60.0 70.0)
  end
  begin
     id 3 
     name ltibia
     direction 0.34202 -0.939693 0   
     length 7.07101   
     axis 0 0 20   XYZ
    dof rx
    limits (-10.0 170.0)
  end
  begin
     id 4 
     name lfoot
     direction 0.028254 -0.0776273 0.996582   
     length 1.66799   
     axis -90 7.62852e-016 20   XYZ
    dof rx rz
    limits (-45.0 90.0)
           (-70.0 20.0)
  end
  begin
     id 5 
     name ltoes
     direction 1.53483e-011 -4.21688e-011 1   
     length 0.851674   
     axis -90 7.62852e-016 20   XYZ
    dof rx
    limits (-90.0 20.0)
  end
  begin
     id 6 
     name rhipjoint
     direction -0.822466 -0.411836 0.392353   
     length 3.81764  
     axis 0 0 0  XYZ 
  end
  begin
     id 7 
     name rfemur
     direction -0.34202 -0.939693 0   
     length 6.28636   
     axis 0 0 -20   XYZ
    dof rx ry rz
    limits (-160.0 20.0)
           (-70.0 70.0)
           (-70.0 60.0)
  end
  begin
     id 8 
     name rtibia
     direction -0.34202 -0.939693 0   
     length 6.85621   
     axis 0 0 -20   XYZ
    dof rx
    limits (-10.0 170.0)
 end
 begin
     id 9 
     name rfoot
     direction -0.0553036 -0.151945 0.98684   
     length 1.57293  
     axis -90 -7.62852e-016 -20   XYZ
    dof rx rz
    limits (-45.0 90.0)
           (-20.0 70.0)
  end
  begin
     id 10 
     name rtoes
     direction -1.53592e-011 -4.21964e-011 1   
     length 0.802812   
     axis -90 -7.62852e-016 -20   XYZ
    dof rx
    limits (-90.0 20.0)
  end
  begin
     id 11 
     name lowerback
     direction 0.00654913 0.996475 -0.0836396   
     length 1.97212   
     axis 0 0 0   XYZ
    dof rx ry rz
    limits (-20.0 45.0)
           (-30.0 30.0)
           (-30.0 30.0)
  end
  begin
     id 12 
     name upperback
     direction 0.0111875 0.994527 0.103877   
     length 1.89704   
     axis 0 0 0   XYZ
    dof rx ry rz
    limits (-20.0 45.0)
           (-30.0 30.0)
           (-30.0 30.0)
  end
  begin
     id 13 
     name thorax
     direction 0.00473652 0.989004 0.147814   
     length 1.94516   
     axis 0 0 0   XYZ
    dof rx ry rz
    limits (-20.0 45.0)
           (-30.0 30.0)
           (-30.0 30.0)
  end
  begin
     id 14 
     name lowerneck
     direction -0.00925808 0.999011 0.0434791   
     length 1.81771   
     axis 0 0 0   XYZ
    dof rx ry rz
    limits (-20.0 45.0)
           (-30.0 30.0)
           (-30.0 30.0)
  end
  begin
     id 15 
     name upperneck
     direction 0.00451595 0.964412 -0.264365   
     length 1.80434   
     axis 0 0 0   XYZ
    dof rx ry rz
    limits (-20.0 45.0)
           (-30.0 30.0)
           (-30.0 30.0)
  end
  begin
     id 16
     name head
     direction -0.00110849 0.995756 -0.0920241  
     length 1.84006  
     axis 0 0 0   XYZ
    dof rx ry rz
    limits (-20.0 45.0)
           (-30.0 30.0)
           (-30.0 30.0)
  end
  begin
     id 17 
     name lclavicle
     direction 0.921253 0.385213 0.0538957  
     length 3.67415  
     axis 0 0 0   XYZ
    dof ry rz
    limits (-20.0 10.0)
           (0.0 20.0)
  end
  begin
     id 18 
     name lhumerus
     direction 1 -4.48961e-011 6.73441e-028   
     length 4.32712   
     axis 180 -30 -90   XYZ
    dof rx ry rz
    limits (-60.0 90.0)
           (-90.0 90.0)
           (-90.0 90.0)
  end
  begin
     id 19
     name lradius
     direction 1 -4.48985e-011 -9.53507e-028   
     length 3.28587   
     axis 180 -30 -90   XYZ
    dof rx
    limits (-10.0 170.0)
  end
  begin
     id 20
     name lwrist
     direction 1 -4.48951e-011 -4.67472e-027   
     length 1.64293   
     axis 1.65735e-015 90 90   XYZ
    dof ry
    limits (-180.0 0.0)
 end
  begin
     id 21 
     name lhand
     direction 1 -4.48946e-011 -9.34945e-027   
     length 0.433158   
     axis 5.96574e-015 90 90   XYZ
    dof rx rz
    limits (-90.0 90.0)
           (-45.0 45.0)
  end
  begin
     id 22 
     name lfingers
     direction 1 -4.48882e-011 -1.86989e-026   
     length 0.349224   
     axis 1.19315e-014 90 90   XYZ
    dof rx
    limits (0.0 90.0)
  end
  begin
     id 23
     name lthumb
     direction 0.707107 -6.3493e-011 0.707107   
     length 0.501417   
     axis -90 45 2.85299e-015   XYZ
    dof rx rz
    limits (-45.0 45.0)
           (-45.0 45.0)
  end
  begin
     id 24 
     name rclavicle
     direction -0.884378 0.46502 -0.0403866   
     length 3.50218  
     axis 0 0 0   XYZ 
    dof ry rz
    limits (-10.0 20.0)
           (-20.0 0.0)
  end
  begin
     id 25 
     name rhumerus
     direction -1 -4.48964e-011 1.58188e-027  
     length 4.29104   
     axis 180 30 90   XYZ
    dof rx ry rz
    limits (-90.0 60.0)
           (-90.0 90.0)
           (-90.0 90.0)
  end
  begin
     id 26 
     name rradius
     direction -1 -4.48978e-011 -1.9722e-027   
     length 3.2272   
     axis 180 30 90   XYZ
    dof rx
    limits (-10.0 170.0)
  end
  begin
     id 27 
     name rwrist
     direction -1 -4.48969e-011 -4.67472e-027   
     length 1.6136   
     axis 1.65735e-015 -90 -90   XYZ
    dof ry
    limits (-180.0 0.0)
  end
  begin
     id 28
     name rhand
     direction -1 -4.48846e-011 -9.34945e-027   
     length 0.543623   
     axis 5.96574e-015 -90 -90   XYZ
    dof rx rz
    limits (-90.0 90.0)
           (-45.0 45.0)
  end
  begin
     id 29
     name rfingers
     direction -1 -4.49074e-011 -1.86989e-026   
     length 0.438283   
     axis 1.19315e-014 -90 -90   XYZ
    dof rx
    limits (0.0 90.0)
  end
  begin
     id 30
     name rthumb
     direction -0.707107 -6.34834e-011 0.707107   
     length 0.629289   
     axis -90 -45 -2.85299e-015   XYZ
    dof rx rz
    limits (-45.0 45.0)
           (-45.0 45.0)
  end
:hierarchy
  begin
    root lhipjoint rhipjoint lowerback
    lhipjoint lfemur
    lfemur ltibia
    ltibia lfoot
    lfoot ltoes
    rhipjoint rfemur
    rfemur rtibia
    rtibia rfoot
    rfoot rtoes
    lowerback upperback
    upperback thorax
    thorax lowerneck lclavicle rclavicle
    lowerneck upperneck
    upperneck head
    lclavicle lhumerus
    lhumerus lradius
    lradius lwrist
    lwrist lhand lthumb
    lhand lfingers
    rclavicle rhumerus
    rhumerus rradius
    rradius rwrist
    rwrist rhand rthumb
    rhand rfingers
  end

#!OML:ASF H:\GeneralSubjects\Female5\Project 1\Capture day 1\Session 1\Female5.ASF
:FULLY-SPECIFIED
:DEGREES
18
root -37.885 16.3061 5.47235 -124.598 85.4502 -137.323
lowerback 5.23351 3.39705 5.96565
upperback -9.97012 5.4488 -2.09569
thorax -13.0999 2.0027 -6.54108
lowerneck -14.1031 10.004 18.7732
upperneck 39.6328 13.933 -4.21816
head 19.3791 8.58194 -2.00897
rclavicle 3.54831e-014 -1.98785e-015
rhumerus -45.0841 13.9281 -89.6697
rradius 32.5078
rwrist -1.93984
rhand -18.5707 -21.692
rfingers 7.12502
rthumb 7.71951 -51.5311
lclavicle 3.54831e-014 -1.98785e-015
lhumerus -45.8308 -6.40182 75.6142
lradius 34.7885
lwrist -1.94922
lhand -23.5761 31.8342
lfingers 7.12502
lthumb 2.88677 61.7944
rfemur 2.48428 22.4404 36.5229
rtibia -14.5116
rfoot 5.71391 -31.8208
rtoes -52.2424
lfemur -5.2631 -30.5731 -23.3952
ltibia -2.95985
lfoot -30.0105 -2.16422
ltoes -10.4521
19
root -37.8746 16.3066 5.47363 -125.62 85.369 -138.325
lowerback 5.30933 3.40399 5.99092
upperback -9.95026 5.46368 -2.09581
thorax -13.1196 2.00535 -6.56319
lowerneck -14.1844 10.0356 18.8116
upperneck 39.6001 13.9533 -4.24805
head 19.3933 8.58516 -2.01987
rclavicle -4.68138e-014 2.06736e-014
rhumerus -45.0518 13.7305 -89.486
rradius 32.4067
rwrist -1.78685
rhand -18.8829 -21.4936
rfingers 7.12502
rthumb 7.41817 -51.3435
lclavicle -4.68138e-014 2.06736e-014
lhumerus -45.8057 -6.56217 75.8031
lradius 35.1788
lwrist -1.9204
lhand -23.5489 31.7098
lfingers 7.12502
lthumb 2.91305 61.6697
rfemur 2.34796 22.3043 36.4261
rtibia -14.2576
rfoot 5.94347 -31.6274
rtoes -52.692
lfemur -5.28532 -30.3432 -23.4199
ltibia -2.86573
lfoot -29.7374 -2.06751
ltoes -10.6956
20
root -37.8643 16.3074 5.47521 -126.515 85.2768 -139.188
lowerback 5.4201 3.39142 6.02455
upperback -9.93689 5.45795 -2.07534
thorax -13.1737 1.99619 -6.56843
lowerneck -14.2895 10.0015 18.713
upperneck 39.6049 13.9132 -4.27602
head 19.4073 8.54796 -2.02318
rclavicle -1.31695e-014 8.74653e-015
rhumerus -45.053 13.6551 -89.3869
rradius 32.3078
rwrist -2.02891
rhand -18.4476 -21.9735
rfingers 7.12502
rthumb 7.83836 -51.8082
lclavicle -1.31695e-014 8.74653e-015
lhumerus -45.8369 -6.69715 75.9903
lradius 35.6036
lwrist -1.86335
lhand -23.5544 31.8106
lfingers 7.12502
lthumb 2.90774 61.7705
rfemur 2.19756 22.1681 36.3483
rtibia -13.9434
rfoot 6.05842 -31.4504
rtoes -53.0448
lfemur -5.27436 -30.1378 -23.4303
ltibia -2.81465
lfoot -29.5029 -1.943
ltoes -10.9299
21
root -37.8543 16.3082 5.47737 -127.312 85.1803 -139.95
lowerback 5.55953 3.36515 6.06431
upperback -9.93268 5.43793 -2.04717
thorax -13.2594 1.97789 -6.57017
lowerneck -14.4094 9.91024 18.5087
upperneck 39.6447 13.8177 -4.29867
head 19.4222 8.47737 -2.02092
rclavicle -1.71452e-014 2.82274e-014
rhumerus -45.0557 13.5978 -89.3014
rradius 32.2139
rwrist -2.33622
rhand -18.1449 -22.2991
rfingers 7.12502
rthumb 8.13051 -52.1226
lclavicle -1.71452e-014 2.82274e-014
lhumerus -45.9131 -6.84707 76.1814
lradius 36.0481
lwrist -1.74587
lhand -23.5869 32.0405
lfingers 7.12502
lthumb 2.87627 62.0008
rfemur 2.03599 22.0377 36.288
rtibia -13.5932
rfoot 6.0992 -31.2844
rtoes -53.3336
lfemur -5.25494 -29.9664 -23.4262
ltibia -2.78221
lfoot -29.3119 -1.80002
ltoes -11.1222
22
root -37.845 16.3088 5.48038 -128.028 85.0757 -140.641
lowerback 5.70099 3.32462 6.09444
upperback -9.92576 5.39874 -2.00521
thorax -13.3481 1.95205 -6.5484
lowerneck -14.5523 9.78094 18.2229
upperneck 39.7043 13.6878 -4.3257
head 19.4394 8.38148 -2.01584
rclavicle -1.42628e-014 2.3059e-014
rhumerus -45.0379 13.5486 -89.1995
rradius 32.1369
rwrist -2.6028
rhand -17.8682 -22.5867
rfingers 7.12502
rthumb 8.39749 -52.3997
lclavicle -1.42628e-014 2.3059e-014
lhumerus -45.9914 -6.97373 76.3644
lradius 36.4788
lwrist -1.62027
lhand -23.6614 32.4989
lfingers 7.12502
lthumb 2.80435 62.4602
rfemur 1.85638 21.9142 36.2505
rtibia -13.2216
rfoot 6.12177 -31.112
rtoes -53.6192
lfemur -5.25038 -29.825 -23.4002
ltibia -2.75037
lfoot -29.1409 -1.64988
ltoes -11.2723
23
root -37.8359 16.3089 5.48416 -128.503 84.9518 -141.107
lowerback 5.82096 3.27539 6.13569
upperback -9.90951 5.34829 -1.9509
thorax -13.4145 1.92201 -6.51437
lowerneck -14.7139 9.62484 17.877
upperneck 39.7789 13.5302 -4.34557
head 19.4581 8.26685 -2.00398
rclavicle 4.31363e-014 2.18663e-014
rhumerus -44.9995 13.4889 -89.0744
rradius 32.0884
rwrist -2.79135
rhand -17.8429 -22.6324
rfingers 7.12502
rthumb 8.42197 -52.4445
lclavicle 4.31363e-014 2.18663e-014
lhumerus -46.0433 -7.07099 76.5327
lradius 36.868
lwrist -1.4837
lhand -23.772 32.9741
lfingers 7.12502
lthumb 2.69751 62.9368
rfemur 1.67926 21.8023 36.259
rtibia -12.8767
rfoot 6.09811 -30.9464
rtoes -53.8679
lfemur -5.26559 -29.7259 -23.3292
ltibia -2.71463
lfoot -28.9961 -1.49788
ltoes -11.4047
24
root -37.8259 16.309 5.48812 -128.66 84.8181 -141.273
lowerback 5.91476 3.22291 6.19597
upperback -9.88784 5.29467 -1.88894
thorax -13.4577 1.89061 -6.47875
lowerneck -14.887 9.44406 17.4799
upperneck 39.8726 13.3396 -4.3377
head 19.4773 8.13574 -1.97795
rclavicle 2.88735e-014 4.77083e-015
rhumerus -44.9731 13.4371 -88.953
rradius 32.0759
rwrist -2.98439
rhand -17.566 -22.8569
rfingers 7.12502
rthumb 8.68913 -52.6581
lclavicle 2.88735e-014 4.77083e-015
lhumerus -46.082 -7.14829 76.6748
lradius 37.2145
lwrist -1.36413
lhand -23.9032 33.4326
lfingers 7.12502
lthumb 2.57081 63.3968
rfemur 1.52699 21.7125 36.3119
rtibia -12.596
rfoot 6.10222 -30.7653
rtoes -54.135
lfemur -5.29492 -29.6962 -23.2192
ltibia -2.66745
lfoot -28.9153 -1.34791
ltoes -11.5252
25
root -37.8145 16.3092 5.49189 -128.622 84.7041 -141.267
lowerback 5.99265 3.16517 6.23744
upperback -9.8684 5.2323 -1.81468
thorax -13.4975 1.85821 -6.41615
lowerneck -15.068 9.24266 17.027
upperneck 39.9874 13.1235 -4.2975
head 19.4982 7.991 -1.93286
rclavicle -1.26725e-014 -3.97569e-016
rhumerus -44.9672 13.4125 -88.8244
rradius 32.1013
rwrist -3.12939
rhand -17.7161 -22.6602
rfingers 7.12502
rthumb 8.5443 -52.4673
lclavicle -1.26725e-014 -3.97569e-016
lhumerus -46.1319 -7.18134 76.7929
lradius 37.5187
lwrist -1.25859
lhand -23.9608 33.7989
lfingers 7.12502
lthumb 2.51518 63.7638
rfemur 1.40808 21.655 36.3763
rtibia -12.4005
rfoot 6.09016 -30.5997
rtoes -54.3525
lfemur -5.36769 -29.6775 -23.1028
ltibia -2.56244
lfoot -28.8524 -1.22826
ltoes -11.6382
26
root -37.8011 16.3099 5.49522 -128.47 84.6365 -141.176
lowerback 6.05127 3.10305 6.23072
upperback -9.84982 5.15828 -1.72683
thorax -13.5321 1.82669 -6.3079
lowerneck -15.249 9.02367 16.5211
upperneck 40.1156 12.8898 -4.23279
head 19.5171 7.83464 -1.87139
rclavicle 3.24516e-014 1.31198e-014
rhumerus -44.9837 13.4479 -88.706
rradius 32.156
rwrist -3.34349
rhand -17.8712 -22.4147
rfingers 7.12502
rthumb 8.39467 -52.2278
lclavicle 3.24516e-014 1.31198e-014
lhumerus -46.1957 -7.14713 76.8859
lradius 37.7793
lwrist -1.15332
lhand -23.9669 33.8848
lfingers 7.12502
lthumb 2.50934 63.8498
rfemur 1.32637 21.641 36.4236
rtibia -12.3016
rfoot 6.15732 -30.4268
rtoes -54.5895
lfemur -5.41964 -29.7779 -23.0158
ltibia -2.49899
lfoot -28.928 -1.0878
ltoes -11.757
27
root -37.7852 16.3108 5.49771 -128.299 84.6353 -141.093
lowerback 6.07694 3.04284 6.16448
upperback -9.82414 5.07663 -1.63551
thorax -13.5423 1.79967 -6.15768
lowerneck -15.444 8.77416 15.9919
upperneck 40.2788 12.6322 -4.19173
head 19.5605 7.66351 -1.82149
rclavicle 6.43565e-015 9.14409e-015
rhumerus -45.0127 13.5237 -88.5882
rradius 32.2389
rwrist -3.63555
rhand -18.3836 -21.8931
rfingers 7.12502
rthumb 7.90015 -51.7254
lclavicle 6.43565e-015 9.14409e-015
lhumerus -46.256 -7.0432 76.9454
lradius 37.9862
lwrist -1.04146
lhand -23.8811 33.8513
lfingers 7.12502
lthumb 2.59218 63.8153
rfemur 1.2792 21.6749 36.4282
rtibia -12.2878
rfoot 6.30215 -30.2615
rtoes -54.8447
lfemur -5.49412 -29.8671 -22.9808
ltibia -2.40938
lfoot -29.0118 -0.989099
ltoes -11.9175
28
root -37.7669 16.3117 5.49913 -128.135 84.7028 -141.047
lowerback 6.07229 2.98862 6.04388
upperback -9.78936 4.99253 -1.54958
thorax -13.5252 1.77849 -5.97928
lowerneck -15.6511 8.50965 15.432
upperneck 40.4492 12.3496 -4.12694
head 19.6046 7.47971 -1.75991
rclavicle -3.27001e-014 -1.39149e-014
rhumerus -45.058 13.6464 -88.4974
rradius 32.3451
rwrist -4.1069
rhand -18.7618 -21.7012
rfingers 7.12502
rthumb 7.53508 -51.547
lclavicle -3.27001e-014 -1.39149e-014
lhumerus -46.2911 -6.848 76.9465
lradius 38.1187
lwrist -0.974359
lhand -23.7261 33.8963
lfingers 7.12502
lthumb 2.74187 63.8585
rfemur 1.2565 21.7555 36.3824
rtibia -12.3421
rfoot 6.5447 -30.1053
rtoes -55.1279
lfemur -5.4719 -30.0959 -23.0138
ltibia -2.49313
lfoot -29.2525 -0.817955
ltoes -12.149
29
root -37.747 16.3124 5.4998 -127.824 84.8146 -140.882
lowerback 6.04157 2.93317 5.88225
upperback -9.73582 4.89902 -1.4525
thorax -13.4733 1.75968 -5.76067
lowerneck -15.8849 8.25412 14.8648
upperneck 40.6431 12.0851 -4.06042
head 19.6765 7.30046 -1.68929
rclavicle 4.03533e-014 2.38542e-014
rhumerus -45.0762 13.7991 -88.3905
rradius 32.4659
rwrist -4.57971
rhand -19.3793 -21.4828
rfingers 7.12502
rthumb 6.93898 -51.3491
lclavicle 4.03533e-014 2.38542e-014
lhumerus -46.2861 -6.50795 76.8674
lradius 38.1732
lwrist -1.01252
lhand -23.5206 33.8748
lfingers 7.12502
lthumb 2.94037 63.8343
rfemur 1.24273 21.8788 36.3121
rtibia -12.4471
rfoot 6.87219 -29.9694
rtoes -55.42
lfemur -5.40043 -30.4476 -23.0724
ltibia -2.67889
lfoot -29.6397 -0.601627
ltoes -12.4344
